<?xml version="1.0" ?><svg data-name="Layer 1" id="Layer_1" viewBox="0 0 512 512" xmlns="http://www.w3.org/2000/svg"><rect height="131.03" rx="22.39" width="191.6" x="154.39" y="76.38"/><path d="M431.65,352.92a11.69,11.69,0,0,0,.36-1.78V283.3a11.85,11.85,0,0,0-11.85-11.85H266.9V223.2H243.2v48.25H89.93A11.85,11.85,0,0,0,78.08,283.3v67.84a11.69,11.69,0,0,0,.36,1.78,42.25,42.25,0,1,0,23,0,11.68,11.68,0,0,0,.35-1.78v-56H243.2v56a11.69,11.69,0,0,0,.36,1.78,42.24,42.24,0,1,0,23,0,10.59,10.59,0,0,0,.36-1.78v-56H408.31v56a11.68,11.68,0,0,0,.35,1.78,42.25,42.25,0,1,0,23,0Z"/><path d="M395,106.4h57.49a11.86,11.86,0,0,0,0-23.71H395a11.86,11.86,0,0,0,0,23.71Z"/><path d="M395,148.45h38a11.85,11.85,0,1,0,0-23.7H395a11.85,11.85,0,1,0,0,23.7Z"/></svg>